<?xml version="1.0" encoding="utf-8"?>
<!-- Generator: Adobe Illustrator 23.0.0, SVG Export Plug-In . SVG Version: 6.00 Build 0)  -->
<svg version="1.1" id="Calque_1" xmlns="http://www.w3.org/2000/svg" xmlns:xlink="http://www.w3.org/1999/xlink" x="0px" y="0px"
	 viewBox="0 0 70 64" style="enable-background:new 0 0 70 64;" xml:space="preserve">
<g>
	<path d="M58.6,64H11.4c-4.1,0-7.8-2.1-9.9-5.7s-2.1-7.9,0-11.4L25.1,5.7C27.2,2.1,30.9,0,35,0s7.8,2.1,9.9,5.7l23.6,41.1
		c2.1,3.6,2.1,7.9,0,11.4S62.7,64,58.6,64z M35,3.3c-2.9,0-5.6,1.5-7,4.1L4.4,48.5c-1.5,2.6-1.5,5.6,0,8.2s4.1,4.1,7,4.1h47.2
		c2.9,0,5.6-1.5,7-4.1c1.5-2.6,1.5-5.6,0-8.2L42,7.4C40.6,4.8,37.9,3.3,35,3.3z M63.5,48.7L40.8,9c-1.2-2.1-3.4-3.4-5.8-3.4
		c-2.4,0-4.6,1.3-5.8,3.4L6.5,48.7c-1.2,2.1-1.2,4.6,0,6.7c1.2,2.1,3.4,3.4,5.8,3.4h45.5c2.4,0,4.6-1.3,5.8-3.4
		C64.7,53.3,64.7,50.8,63.5,48.7z M30.9,21.4c0-2.3,1.8-4.1,4.1-4.1c2.3,0,4.1,1.9,4.1,4.1v13.5c0,2.3-1.8,4.1-4.1,4.1
		c-2.3,0-4.1-1.9-4.1-4.1V21.4z M35,51.2c-2.3,0-4.2-1.9-4.2-4.2c0-2.3,1.9-4.2,4.2-4.2c2.3,0,4.2,1.9,4.2,4.2
		C39.2,49.3,37.3,51.2,35,51.2z"/>
</g>
</svg>
