<?xml version="1.0" encoding="utf-8"?>
<!-- Generator: Adobe Illustrator 23.0.0, SVG Export Plug-In . SVG Version: 6.00 Build 0)  -->
<svg version="1.1" id="Calque_1" xmlns="http://www.w3.org/2000/svg" xmlns:xlink="http://www.w3.org/1999/xlink" x="0px" y="0px"
	 viewBox="0 0 114 109" style="enable-background:new 0 0 114 109;" xml:space="preserve">
<style type="text/css">
	.st0{fill:#B3801D;}
</style>
<g>
	<path class="st0" d="M41.5,94.5c1.6,2.5,2.4,6.8,2,9.4c-0.5,3-2.9,4.9-5.1,5.1c-3.3,0.3-4.7-2.2-2.8-3.7c1.5-1.2,2.5-2.4,3.3-3.8
		c0.8-1.4,1.2-3.8,0.7-5.8C39.1,93.2,40.2,92.5,41.5,94.5z"/>
	<path class="st0" d="M43.1,84c2.5,1.6,6.8,2.4,9.4,2c3-0.5,4.9-2.9,5.1-5.1c0.3-3.3-2.2-4.7-3.7-2.8c-1.2,1.5-2.4,2.5-3.8,3.3
		c-1.4,0.8-3.8,1.2-5.8,0.7C41.8,81.6,41,82.7,43.1,84z"/>
	<path class="st0" d="M10.9,60.9c-1.7-1.4-4.8-2.3-6.7-2.2C2,58.8,0.4,60.4,0.1,62c-0.5,2.4,1.2,3.6,2.5,2.3c1-1,2-1.6,3-2.1
		c1.1-0.5,2.9-0.6,4.3-0.1C11.7,62.8,12.3,62,10.9,60.9z"/>
	<path class="st0" d="M21.5,66.2c0.1-2.2,1.4-5.1,2.8-6.5c1.5-1.6,3.8-1.7,5.2-0.9c2.1,1.2,1.9,3.3,0.1,3.4
		c-1.4,0.1-2.5,0.4-3.6,0.9c-1.1,0.5-2.3,1.8-2.9,3.2C22.5,68,21.5,68,21.5,66.2z"/>
	<path class="st0" d="M73.4,107.8c1.4-0.6,3.6-2.8,4.3-4.5c0.5-1.1,0.8-1.1,1.7,0.2c1.3,1.8,3.5,2.8,6.3,3.4
		c2.8,0.6,24.3,0.7,27.2,0.7c1.7,0,1.6,1.3-0.1,1.3c-3.5,0-37.2,0-39.2,0C72.6,108.9,72.5,108.1,73.4,107.8z"/>
	<path class="st0" d="M4.6,40.5c0.6-1.4,2.8-3.6,4.5-4.3c1.1-0.5,1.1-0.8-0.2-1.7c-1.8-1.3-2.8-3.5-3.4-6.2C5,25.6,4.9,4.1,4.9,1.2
		c0-1.7-1.3-1.6-1.3,0.1c0,3.5,0,37.1,0,39.2C3.5,41.3,4.2,41.4,4.6,40.5z"/>
	<path class="st0" d="M76.7,100.8c-3.3,7.4-14,8.9-20.9,6.4c-8-2.9-11.6-11.7-15.8-18.4C35.6,82,27,76.3,18.5,79.1
		c-4.1,1.4-7.5,4.6-9.2,8.4c-1.6,3.7-1.1,8.1,0.5,11.7c3.1,7,13.4,11.1,18.6,4c4.1-5.5,0.5-14.1-6.3-15.2c-3.5-0.5-5.8,2.6-5.8,5.7
		c0,1.6,1,3,2.2,4.1c0.2,0.2,0.6,0.5,0.9,0.7c0.2-0.9,1.2-1.8,2.5-2c1.6-0.4,3.2,0.3,3.4,1.5c0.2,1.1-0.7,2.2-2.1,2.7
		c-0.2,0.1-0.3,0.1-0.4,0.1c-3.2,0.7-6.5-0.3-8.6-3c-2.1-2.7-1.4-6.7,1.2-8.9c5.8-4.9,14.4-2.3,17.4,4.3c1.5,3.2,0.5,7-1.4,9.8
		c-2.1,3-5.6,4.6-9.1,5.3c-7.5,1.3-14.5-3.2-16.7-10.4C3.1,90,7.8,82.6,15,79c7.4-3.7,16.6-2.4,23,2.7c6.4,5.1,8.9,13.5,14.2,19.6
		c3,3.5,7.4,5.6,12,5.5c4.4-0.1,8.2-2.5,9.7-6.6c1.1-3.1,0.9-6.7-0.8-9.6c-1.9-3.4-6.5-5.2-10.2-4c-3.8,1.2-4.5,5.8-3.4,9.1
		c0.6,1.8,2,3.3,3.7,4.1c1.4,0.6,2.9,0.3,3.5-0.8c-0.6-0.5-0.9-1.4-0.9-2.3c0-1.6,1-2.9,2.3-2.9c1.3,0,2.3,1.3,2.3,2.9
		c0,3.7-3.8,4.8-6.9,5c-3.6,0.3-6.4-2.3-7.5-5.6c-2.7-8.3,6.9-12.5,13.6-11.2C76.9,86.4,79.6,94.5,76.7,100.8z"/>
	<path class="st0" d="M28.9,46.9c-0.2,4.1-2.5,7.5-6.5,8.6c-4.8,1.3-10.8-1.6-10.3-7.1c0.2-2.5,1.9-4.2,4.3-4.8
		c2.1-0.5,5.1-0.5,6.6,1.4c0.8,1.1,0.9,2.5,0.1,3.1c-0.8,0.6-2.1,0.3-3-0.8c-0.5-0.6-0.7-1.4-0.6-2c-1.8-1.9-3.5,1.3-3.8,2.9
		c-0.4,2.3,1,4.4,2.9,5.6c2.1,1.4,4.4-0.2,5.6-2c1.3-2,1.6-4.6,1.4-6.9c-0.4-4.8-5.8-8.1-10.3-6.9c-4.5,1.1-7.4,5.8-7.1,10.3
		c0.3,4.7,4,8,7.1,11.2c3.2,3.2,6.6,6.4,6.1,11.3c-0.4,3.9-3.4,6.2-7,6.9c-3.5,0.7-7.7-0.3-9.1-3.9c-1.2-3,0.2-6.2,3.1-7.6
		c2.5-1.3,6.6-0.5,7.8,2.2c0.7,1.4,0.3,2.9-0.8,3.5c-1.1,0.6-2.6-0.1-3.2-1.5c-0.5-0.9-0.4-1.9,0-2.6c-0.4-0.5-0.8-0.9-1.3-0.7
		c-0.9,0.4-1.6,1.3-2.1,2.2c-1.2,2-0.4,4.4,1.1,6.1c1.6,1.7,4,1.5,5.7,0.2c1.8-1.3,2.4-3.8,2.4-6c-0.1-4.8-5-8.4-8-11.5
		c-3-3.1-5.5-6.6-5.2-11.1C5,38,15.9,34.4,23,37.4C27.1,39.1,29.1,42.6,28.9,46.9z"/>
</g>
</svg>
