<?xml version="1.0" encoding="utf-8"?>
<!-- Generator: Adobe Illustrator 23.0.0, SVG Export Plug-In . SVG Version: 6.00 Build 0)  -->
<svg version="1.1" id="Calque_1" xmlns="http://www.w3.org/2000/svg" xmlns:xlink="http://www.w3.org/1999/xlink" x="0px" y="0px"
	 viewBox="0 0 114 109" style="enable-background:new 0 0 114 109;" xml:space="preserve">
<style type="text/css">
	.st0{fill:#B3801D;}
</style>
<g>
	<path class="st0" d="M72.5,14.5c-1.6-2.5-2.4-6.8-2-9.4c0.5-3,2.9-4.9,5.1-5.1c3.3-0.3,4.7,2.2,2.8,3.7c-1.5,1.2-2.5,2.4-3.3,3.8
		c-0.8,1.4-1.2,3.8-0.7,5.8C74.9,15.8,73.8,16.5,72.5,14.5z"/>
	<path class="st0" d="M70.9,25c-2.5-1.6-6.8-2.4-9.4-2c-3,0.5-4.9,2.9-5.1,5.1c-0.3,3.3,2.2,4.7,3.7,2.8c1.2-1.5,2.4-2.5,3.8-3.3
		c1.4-0.8,3.8-1.2,5.8-0.7C72.2,27.4,73,26.3,70.9,25z"/>
	<path class="st0" d="M103.1,48.1c1.7,1.4,4.8,2.3,6.7,2.2c2.2-0.1,3.8-1.7,4.1-3.3c0.5-2.4-1.2-3.6-2.5-2.3c-1,1-2,1.6-3,2.1
		c-1.1,0.5-2.9,0.6-4.3,0.1C102.3,46.2,101.7,47,103.1,48.1z"/>
	<path class="st0" d="M92.5,42.8c-0.1,2.2-1.4,5.1-2.8,6.5c-1.5,1.6-3.8,1.7-5.2,0.9c-2.1-1.2-1.9-3.3-0.1-3.4
		c1.4-0.1,2.5-0.4,3.6-0.9c1.1-0.5,2.3-1.8,2.9-3.2C91.5,41,92.5,41,92.5,42.8z"/>
	<path class="st0" d="M40.6,1.2c-1.4,0.6-3.6,2.8-4.3,4.5c-0.5,1.1-0.8,1.1-1.7-0.2c-1.3-1.8-3.5-2.8-6.3-3.4
		C25.6,1.6,4.1,1.6,1.2,1.5c-1.7,0-1.6-1.3,0.1-1.3c3.5,0,37.2,0,39.2,0C41.4,0.1,41.5,0.9,40.6,1.2z"/>
	<path class="st0" d="M109.4,68.5c-0.6,1.4-2.8,3.6-4.5,4.3c-1.1,0.5-1.1,0.8,0.2,1.7c1.8,1.3,2.8,3.5,3.4,6.2
		c0.6,2.8,0.7,24.2,0.7,27.1c0,1.7,1.3,1.6,1.3-0.1c0-3.5,0-37.1,0-39.2C110.5,67.7,109.8,67.6,109.4,68.5z"/>
	<path class="st0" d="M37.3,8.2c3.3-7.4,14-8.9,20.9-6.4c8,2.9,11.6,11.7,15.8,18.4C78.4,27,87,32.7,95.5,29.9
		c4.1-1.4,7.5-4.6,9.2-8.4c1.6-3.7,1.1-8.1-0.5-11.7c-3.1-7-13.4-11.1-18.6-4c-4.1,5.5-0.5,14.1,6.3,15.2c3.5,0.5,5.8-2.6,5.8-5.7
		c0-1.6-1-3-2.2-4.1c-0.2-0.2-0.6-0.5-0.9-0.7c-0.2,0.9-1.2,1.8-2.5,2c-1.6,0.4-3.2-0.3-3.4-1.5c-0.2-1.1,0.7-2.2,2.1-2.7
		c0.2-0.1,0.3-0.1,0.4-0.1c3.2-0.7,6.5,0.3,8.6,3c2.1,2.7,1.4,6.7-1.2,8.9c-5.8,4.9-14.4,2.3-17.4-4.3c-1.5-3.2-0.5-7,1.4-9.8
		c2.1-3,5.6-4.6,9.1-5.3c7.5-1.3,14.5,3.2,16.7,10.4c2.5,8.1-2.2,15.5-9.4,19.1c-7.4,3.7-16.6,2.4-23-2.7
		c-6.4-5.1-8.9-13.5-14.2-19.6c-3-3.5-7.4-5.6-12-5.5c-4.4,0.1-8.2,2.5-9.7,6.6C39,12,39.3,15.5,41,18.4c1.9,3.4,6.5,5.2,10.2,4
		c3.8-1.2,4.5-5.8,3.4-9.1c-0.6-1.8-2-3.3-3.7-4.1C49.4,8.6,48,8.9,47.4,10c0.6,0.5,0.9,1.4,0.9,2.3c0,1.6-1,2.9-2.3,2.9
		c-1.3,0-2.3-1.3-2.3-2.9c0-3.7,3.8-4.8,6.9-5c3.6-0.3,6.4,2.3,7.5,5.6c2.7,8.3-6.9,12.5-13.6,11.2C37.1,22.6,34.4,14.5,37.3,8.2z"
		/>
	<path class="st0" d="M85.1,62.1c0.2-4.1,2.5-7.5,6.5-8.6c4.8-1.3,10.8,1.6,10.3,7.1c-0.2,2.5-1.9,4.2-4.3,4.8
		c-2.1,0.5-5.1,0.5-6.6-1.4C90.3,63,90.2,61.6,91,61c0.8-0.6,2.1-0.3,3,0.8c0.5,0.6,0.7,1.4,0.6,2c1.8,1.9,3.5-1.3,3.8-2.9
		c0.4-2.3-1-4.4-2.9-5.6c-2.1-1.4-4.4,0.2-5.6,2c-1.3,2-1.6,4.6-1.4,6.9c0.4,4.8,5.8,8.1,10.3,6.9c4.5-1.1,7.4-5.8,7.1-10.3
		c-0.3-4.7-4-8-7.1-11.2c-3.2-3.2-6.6-6.4-6.1-11.3c0.4-3.9,3.4-6.2,7-6.9c3.5-0.7,7.7,0.3,9.1,3.9c1.2,3-0.2,6.2-3.1,7.6
		c-2.5,1.3-6.6,0.5-7.8-2.2c-0.7-1.4-0.3-2.9,0.8-3.5c1.1-0.6,2.6,0.1,3.2,1.5c0.5,0.9,0.4,1.9,0,2.6c0.4,0.5,0.8,0.9,1.3,0.7
		c0.9-0.4,1.6-1.3,2.1-2.2c1.2-2,0.4-4.4-1.1-6.1c-1.6-1.7-4-1.5-5.7-0.2c-1.8,1.3-2.4,3.8-2.4,6c0.1,4.8,5,8.4,8,11.5
		c3,3.1,5.5,6.6,5.2,11.1C109,71,98.1,74.6,91,71.6C86.9,69.9,84.9,66.4,85.1,62.1z"/>
</g>
</svg>
