<?xml version="1.0" encoding="utf-8"?>
<!-- Generator: Adobe Illustrator 23.0.0, SVG Export Plug-In . SVG Version: 6.00 Build 0)  -->
<svg version="1.1" id="Calque_1" xmlns="http://www.w3.org/2000/svg" xmlns:xlink="http://www.w3.org/1999/xlink" x="0px" y="0px"
	 viewBox="0 0 74.8 80" style="enable-background:new 0 0 74.8 80;" xml:space="preserve">
<style type="text/css">
	.st0{fill:#B3801D;}
	.st1{fill:#E6E6E6;}
	.st2{fill:#FFFFFF;}
	.st3{fill:none;}
	.st4{display:none;fill:#333333;}
	.st5{font-family:'Constantia-Bold';}
	.st6{font-size:46.8064px;}
</style>
<g>
	<g>
		<path class="st0" d="M74.3,4.4C74,4.2,73.6,4,73.1,4.1c-5.7,0.6-11.5,0.6-17.2,0c-6.2-0.6-12.2-2-18-4c-0.4-0.1-0.8-0.1-1.1,0
			c-5.8,2-11.8,3.3-18,4c-5.7,0.6-11.5,0.6-17.2,0C0.8,4,0,4.6,0,5.4v31.3c0,0.7,0.7,1.3,1.5,1.3c0.8,0,1.5-0.6,1.5-1.3V6.8
			c5.4,0.5,10.9,0.4,16.2-0.2c6.2-0.7,12.3-2,18.2-4c5.8,2,11.9,3.3,18.2,4C61,7.2,66.4,7.2,71.8,6.8v41.8
			c-3.1,5.8-7.2,11.1-12.4,15.7c-6.2,5.6-13.7,10-22.1,13.1c-8.4-3.1-15.8-7.5-22.1-13.1C10.2,59.7,6.1,54.4,3,48.6v-5.2
			c0-0.7-0.7-1.3-1.5-1.3S0,42.7,0,43.4v5.4c0,0.2,0,0.4,0.1,0.5C3.4,55.5,7.7,61.1,13.2,66c6.7,6,14.6,10.7,23.7,13.9
			c0.4,0.1,0.8,0.1,1.2,0C47,76.7,55,72,61.6,66c5.4-4.9,9.8-10.5,13.1-16.7c0.1-0.2,0.1-0.3,0.1-0.5V5.4C74.8,5,74.6,4.6,74.3,4.4z
			"/>
	</g>
</g>
<g>
	<g>
		<path class="st1" d="M13.8,17.3C18.9,22.2,23.9,27.1,29,32c2.1,2,4.2,4,6.8,5.2c1.5,0.7,3.2,1.1,4.8,0.7c1.6-0.4,3.1-1.7,3.3-3.3
			c0.2-1.5-0.7-3-1.9-3.9c-1.2-0.9-2.8-1.2-4.3-1.3c-2.3-0.1-4.6,0.3-6.7,1.1c1.6,0.2,3.2-1.2,3.6-2.8s-0.3-3.3-1.4-4.6
			c-1.1-1.2-2.6-2.1-4.1-2.7c-2.6-1.2-5.5-2-8.3-1.8c-0.4,0-0.8,0.1-1.1,0.4c-0.6,0.7,0.2,1.8,1,2.3c2.6,1.8,5.2,3.7,7.1,6.2
			s3,5.9,2.1,8.9c-0.8,2.7-3.2,5.4-2,8c1,2,3.6,2.4,5.8,2.6c2,0.2,4,0.3,5.9-0.2c1.9-0.5,3.7-1.9,4.2-3.8"/>
		<g>
			<path class="st1" d="M9.6,21.6C15,26.9,20.4,32.4,26,37.5c4.8,4.3,11.5,8.8,18.1,5.5c5.6-2.8,7.6-9.6,3.7-14.8
				c-4.2-5.6-12.3-5.4-18.3-3.3c-5.9,2.1-5.6,12.5,1.6,11.8c12-1.3,11.9-15.3,2.6-20.6c-4.3-2.4-10.7-4.6-15.6-2.7
				c-5.2,2-5.9,8.3-2,12c3.6,3.5,9.8,5.6,7.2,11.6c-2.1,4.7-2.4,9.7,1.8,13.4c3.5,3.1,9.5,3.4,13.9,2.9c5.2-0.6,8.7-3.6,10.7-8.4
				c2.9-7.2-8.7-10.3-11.6-3.2c0.2-0.4-3-0.4-3.6-0.4c-0.6,0-1.2-0.1-1.9-0.3c0.8,1.6,1.3,1.9,1.6,0.7c2.2-1.6,2.1-7.4,1.7-9.8
				c-0.5-3.2-1.9-6-3.9-8.5c-1-1.2-2.1-2.3-3.3-3.4c-1-0.9-3.5-2-4.1-3.2c0.2,1.5,0.4,3.1,0.6,4.6c0.1-0.3,0.1-0.5,0.2-0.8
				c-1.4,1.4-2.8,2.8-4.2,4.2c1.4-0.5,3.4,0.2,4.6,0.7c0.6,0.3,1.1,0.5,1.7,0.8c1.4,1.6,2.6,1,3.5-1.8c0.5,3.9,1.1,7.9,1.6,11.8
				c1.3-0.4,3.2-0.4,4.2-0.9c1.1,0.3,1.6-0.3,1.5-1.7c1.1-1.2,1-1.9-0.2-2.1c-0.6-0.9-2.7-1.8-3.6-2.7c-1.2-1-2.2-2.1-3.3-3.2
				c-4.4-4.2-8.8-8.5-13.1-12.7C12.5,7.7,4,16.2,9.6,21.6L9.6,21.6z"/>
		</g>
	</g>
	<g>
		<path class="st2" d="M35.2,44.8c-0.7,2.3-1.5,4.7-1.2,7.1c0.3,2.4,1.9,4.8,4.3,5.2c2.6,0.4,4.9-1.7,6.5-3.8
			c3.1-4.4,4.8-9.7,4.8-15c0-2.6-0.5-5.4-2.1-7.5c-1.7-2.3-4.5-3.4-7.1-4.5c-7.1-2.9-14.3-5.7-21.4-8.6c6.5-0.5,12.9-1,19.4-1.6
			c-0.9-0.6-1.9-1.2-2.8-1.7c8.3,2,16.8,3.1,25.3,3.3c0.6,7.3,0,14.6-1.8,21.7c-2.6-6.6-7-12.6-12.6-17c7,3,11.5,11.1,10.4,18.6
			c-0.1,1-0.4,2-0.2,3s1,2,2,2c1,0,1.9-1.3,1.2-2.1c-3.1,0.1-4.3,4.7-7.3,5.4c-1.3,0.3-2.6-0.1-3.9-0.3c-2.7-0.5-5.5-0.3-8.3-0.5
			s-5.6-0.9-7.6-2.9"/>
		<g>
			<path class="st1" d="M29.4,43.2c-2.3,7.5-1.6,18.3,8.2,19.7c9,1.3,14.8-8.8,16.8-16.1c2.3-8.2,1.7-18.1-5.9-23.3
				c-3.5-2.4-8-3.7-11.9-5.3c-5.4-2.2-10.7-4.3-16.1-6.5c-0.5,3.9-1.1,7.9-1.6,11.8c6.5-0.5,12.9-1,19.4-1.6c5.8-0.5,8.3-7.9,3-11.2
				c-0.9-0.6-1.9-1.2-2.8-1.7c-1.5,3.7-3.1,7.3-4.6,11c8.8,2,17.8,3.2,26.9,3.5c-2-2-4-4-6-6c0.5,6.8,0,13.4-1.5,20.1
				c3.9,0,7.7,0,11.6,0c-3.2-7.7-7.7-14.3-14.2-19.7c-2.4,3.1-4.8,6.3-7.3,9.4c3.4,1.7,6,4.2,7.1,8c1.1,3.9-0.8,7.9,1,11.7
				c4,8.3,16.5,4.1,14-4.9c-0.9-3.3-4.2-4.8-7.4-4.2c-1.9,0.4-3.4,1.2-4.9,2.5c-0.7,0.6-1.2,1.2-1.8,1.9c-1.1,1.3,0.4,0.7-0.6,0.8
				c-2.1,0.2-5-0.7-7.2-0.8c-2.1-0.1-4.9,0.2-6.6-1.3c-5.8-5-14.4,3.4-8.5,8.5c5.8,5,12,4.2,19.1,5.1c3.1,0.4,5.9,0.9,8.8-0.8
				c1.5-0.8,4.1-4.3,4.9-4.4c-2.5-1.4-4.9-2.8-7.4-4.2c0.1,0.3,0.2,0.6,0.2,0.9c0.2-1.5,0.4-3.1,0.6-4.6c-0.2,0.3-0.3,0.6-0.5,0.8
				c1.2-0.9,2.4-1.8,3.6-2.8c3.1,3.7,4.7,4.4,4.8,1.9c0.1-0.7,0.2-1.5,0.2-2.2c0.1-1.2-0.1-2.4-0.2-3.6c-0.3-2.7-1.1-5.2-2.3-7.7
				c-2.3-4.8-6.3-8.7-11-11c-5.7-2.8-12.9,4.8-7.3,9.4c4.8,3.9,8.7,8.6,11.1,14.4c2.1,5,10.1,6.4,11.6,0c1.8-7.7,2.5-15.4,2-23.3
				c-0.2-3.3-2.6-5.9-6-6c-8-0.2-15.9-1.2-23.7-3c-6.6-1.5-10.5,7.3-4.6,11c0.9,0.6,1.9,1.2,2.8,1.7c1-3.7,2-7.5,3-11.2
				c-6.5,0.5-12.9,1-19.4,1.6c-7,0.6-7.9,9.3-1.6,11.8c4.8,1.9,9.5,3.8,14.3,5.7c3.1,1.2,9.1,2.4,11.1,5.3c2,3,0.6,8.4-0.7,11.5
				c-0.8,1.9-2.4,3.3-3.3,5c1.4,1,1.8,0.6,1.2-1.1c0.3-1.2,0.6-2.4,1-3.5C43.2,39,31.7,35.8,29.4,43.2L29.4,43.2z"/>
		</g>
	</g>
	<g>
		<g>
			<path class="st1" d="M9,23.7c0.1,4.9,0.1,9.8,0.2,14.7c0,4.1-0.2,8.4,3.4,11.1c3.4,2.5,8,1.3,10.6-1.7c1.3-1.5,2-3.3,2.5-5.3
				c0.3-1.2,0.1-4,1.2-4.5c-2.9-1.2-5.9-2.4-8.8-3.6c0.9,6.3-6.9,8.2-6.8,14.4c0.2,6.6,9.3,9.9,14,12.7c1.5-3.7,3.1-7.3,4.6-11
				c-0.4-0.2-0.7-0.5-1.1-0.7c-5.5-5.5-14,3-8.5,8.5c1.9,1.9,3.8,3,6.4,3.8c6.6,2.1,10.4-7.5,4.6-11c-2.1-1.3-8.1-4.1-8.9-5.4
				c0.2,1.5,0.4,3.1,0.6,4.6c-0.9,0.7-0.7,0.6,0.5-0.5c0.7-0.6,1.4-1.3,2-2.1c1.3-1.6,2.2-3.2,3-5.1c1.6-3.8,1.7-7.5,1.1-11.5
				c-0.6-4.2-5.7-5-8.8-3.6c-2.4,1.1-4.1,3.1-5.2,5.5c-0.6,1.3-0.9,2.6-1.2,4.1c-0.1,0.5-0.1,1-0.2,1.5c-0.8,2.1-0.1,2.1,2,0.1
				c1.4,0.6,2.8,1.2,4.2,1.8c0.6,1.9,0.9,2.1,0.7,0.6c0-0.9,0-1.8,0-2.8c0-1.5,0-3.1,0-4.6c0-3.4-0.1-6.8-0.1-10.1
				C21,16,9,16,9,23.7L9,23.7z"/>
		</g>
	</g>
	<g>
		<path class="st1" d="M56.8,49.2c-2.6-0.1-5.3,1.3-6.6,3.6c0.6-0.4,1.2-0.7,1.9-0.7c0.7,0,1.4,0.6,1.3,1.3c-0.1,0.5-0.5,0.8-0.9,1
			c-3.3,2.3-6.6,4.6-10,7c-1.6,1.1-3.4,2.3-5.4,2.2c-1.5-0.1-2.9-1-4.2-1.9c-3.1-2.2-6.3-4.3-9.4-6.5"/>
		<g>
			<path class="st1" d="M56.8,43.2c-5.2,0.3-8.8,2.4-11.8,6.6c-3.7,5.1,3.4,10.9,8.2,8.2c-0.6,0.1-1.2,0.2-1.8,0.3
				c-1.4-1.4-2.8-2.8-4.2-4.2c0.1,0.3,0.2,0.6,0.3,0.9c0.2-1.5,0.4-3.1,0.6-4.6c-0.3,0.5-3.6,2.3-4.4,2.8c-1.3,0.9-3.9,3.6-5.5,3.8
				c-3.2,0.5-8.9-5.1-11.6-7c-6.4-4.4-12.4,6-6.1,10.4c4.6,3.1,10,8.5,15.8,9c5.8,0.5,10.4-3.7,14.9-6.9c3.8-2.6,9.1-5.3,7.9-10.8
				c-1.3-5.8-7.5-6.6-12-4.2c2.7,2.7,5.5,5.5,8.2,8.2c0.4-0.5,0.8-0.7,1.4-0.6C64.5,54.7,64.6,42.7,56.8,43.2L56.8,43.2z"/>
		</g>
	</g>
	<path class="st0" d="M64,17.3v29.1c-2.6,4.6-5.9,8.8-10,12.5c-4.8,4.3-10.3,7.7-16.6,10.3c-6.2-2.6-11.8-6-16.6-10.3
		c-4.1-3.7-7.5-7.9-10-12.5v-33c0.4,0,0.8,0,1.2,0c3,0,6.1-0.2,9.1-0.5c5.6-0.6,11.1-1.7,16.3-3.3c5.3,1.6,10.8,2.8,16.3,3.3
		c3,0.3,6,0.5,9.1,0.5c0.4,0,0.8,0,1.2,0v7.9c0,0.7,0.6-1.6,1.4-1.6c0.8,0,1.4-0.5,1.4-1.2v-6.3c0-0.3-0.2-0.6-0.4-0.9
		c-0.3-0.2-0.6-0.3-1-0.3c-0.9,0-1.7,0-2.6,0c-2.9,0-5.8-0.2-8.7-0.5c-5.5-0.6-11-1.7-16.2-3.4c-0.3-0.1-0.7-0.1-1,0
		c-5.2,1.7-10.7,2.8-16.2,3.4C17.8,10.9,14.9,11,12,11c-0.8,0-1.7,0-2.6,0c-0.4,0-0.7,0.1-1,0.3C8.1,11.5,8,11.8,8,12.2v34.5
		c0,0.2,0,0.3,0.1,0.5c2.7,4.9,6.3,9.4,10.7,13.3c5.1,4.6,11.2,8.3,18,11c0.2,0.1,0.4,0.1,0.6,0.1s0.4,0,0.6-0.1
		c6.8-2.7,12.9-6.4,18-11c4.4-3.9,8-8.4,10.7-13.3c0.1-0.2,0.1-0.3,0.1-0.5V14.5c0-0.6-0.5-1.1-1.2-1.2C65.5,13.3,64,16.7,64,17.3z"
		/>
	<rect x="16.3" y="2" class="st3" width="44.9" height="59.9"/>
	<text transform="matrix(1 0 0 1 27.7908 41.5037)" class="st4 st5 st6">5</text>
</g>
</svg>
