<?xml version="1.0" encoding="utf-8"?>
<!-- Generator: Adobe Illustrator 23.0.0, SVG Export Plug-In . SVG Version: 6.00 Build 0)  -->
<svg version="1.1" id="Calque_1" xmlns="http://www.w3.org/2000/svg" xmlns:xlink="http://www.w3.org/1999/xlink" x="0px" y="0px"
	 viewBox="0 0 232 232" style="enable-background:new 0 0 232 232;" xml:space="preserve">
<style type="text/css">
	.st0{fill:#FFFFFF;}
	.st1{fill:#33545B;}
	.st2{fill:#68AFB5;}
	.st3{fill:#8BCFD1;}
	.st4{fill:#519096;}
	.st5{fill:#85C7C9;}
	.st6{fill:#FF7C24;}
	.st7{fill:#FFA727;}
	.st8{fill:#DD5B03;}
</style>
<g>
	<circle class="st0" cx="116" cy="116" r="116"/>
	<g>
		<g>
			<path class="st1" d="M166.2,182.1h-0.5l-13.5-63.1c1-0.1,1.7-0.9,1.7-1.8c0-0.5-0.2-0.9-0.5-1.2c0,0,0,0,0,0s0,0,0,0
				c-0.1-0.2-0.3-0.3-0.5-0.4c0,0-0.1-0.1-0.1-0.1c-0.2-0.1-0.5-0.2-0.8-0.2h-22.6c-0.3,0-0.5,0.1-0.8,0.2c-0.1,0-0.1,0.1-0.1,0.1
				c-0.2,0.1-0.3,0.2-0.5,0.4c0,0,0,0,0,0s0,0,0,0c-0.3,0.3-0.5,0.7-0.5,1.2c0,1,0.8,1.8,1.7,1.8l-13.5,63.1h-0.5
				c-1.5,0-2.8,1.2-2.8,2.8c0,1.5,1.2,2.8,2.8,2.8h10.1h40.8c1.5,0,2.8-1.2,2.8-2.8C169,183.3,167.7,182.1,166.2,182.1z"/>
			<path class="st1" d="M200,182.1h-0.5L186,118.9c1-0.1,1.7-0.9,1.7-1.8c0-0.5-0.2-0.9-0.5-1.2c0,0,0,0,0,0c0,0,0,0,0,0
				c-0.1-0.2-0.3-0.3-0.5-0.4c0,0-0.1-0.1-0.1-0.1c-0.2-0.1-0.5-0.2-0.8-0.2h-22.6c-0.3,0-0.5,0.1-0.8,0.2c-0.1,0-0.1,0.1-0.1,0.1
				c-0.2,0.1-0.3,0.2-0.5,0.4c0,0,0,0,0,0c0,0,0,0,0,0c-0.3,0.3-0.5,0.7-0.5,1.2c0,1,0.8,1.8,1.7,1.8l-13.5,63.1h-0.5
				c-1.5,0-2.8,1.2-2.8,2.8c0,1.5,1.2,2.8,2.8,2.8h10.1h38.1c1.5,0,1.2-1.2,1.2-2.8C198.5,183.3,201.6,182.1,200,182.1z"/>
		</g>
		<polygon class="st2" points="134.1,179.3 106.4,49.5 62.7,49.5 35,179.3 		"/>
		<polyline class="st3" points="62.7,49.5 35,179.3 53.2,179.3 		"/>
		<polyline class="st4" points="134.1,179.3 106.4,49.5 62.7,49.5 		"/>
		<path class="st2" d="M110.4,49c0,2-1.7,3.7-3.7,3.7H62.3c-2,0-3.7-1.7-3.7-3.7l0,0c0-2,1.7-3.7,3.7-3.7h44.4
			C108.8,45.3,110.4,46.9,110.4,49L110.4,49z"/>
		<path class="st5" d="M106.7,45.3H62.3c-1.1,0-2.1,0.5-2.8,1.3c0.7,0.8,1.7,1.3,2.8,1.3h44.4c1.1,0,2.1-0.5,2.8-1.3
			C108.8,45.8,107.8,45.3,106.7,45.3z"/>
		<path class="st2" d="M203.1,182.2c0,3-2.4,5.4-5.4,5.4H34.5c-3,0-5.4-2.4-5.4-5.4l0,0c0-3,2.4-5.4,5.4-5.4h163.2
			C200.7,176.7,203.1,179.1,203.1,182.2L203.1,182.2z"/>
		<path class="st3" d="M59.7,182.2c0-3-2.4-5.4-5.4-5.4H34.5c-3,0-5.4,2.4-5.4,5.4s2.4,5.4,5.4,5.4h19.8
			C57.3,187.6,59.7,185.2,59.7,182.2z"/>
		<polygon class="st6" points="53.3,93.6 115.8,93.6 112.1,76.2 57,76.2 		"/>
		<polygon class="st7" points="59.5,93.6 60.7,76.2 57,76.2 55.9,81.4 53.3,93.6 		"/>
		<polygon class="st8" points="86.9,93.6 115.8,93.6 113.2,81.4 112.1,76.2 77.4,76.2 		"/>
		<g>
			<path class="st3" d="M135.1,96c-6,0-10.9-4.9-10.9-10.9c0-6,4.9-10.9,10.9-10.9v2.1c-4.9,0-8.8,4-8.8,8.8c0,4.9,4,8.8,8.8,8.8V96
				z"/>
			<path class="st3" d="M132,109.8v-2.1c4.9,0,8.8-4,8.8-8.8c0-4.9-4-8.8-8.8-8.8V88c6,0,10.9,4.9,10.9,10.9
				C142.9,104.9,138,109.8,132,109.8z"/>
			<path class="st3" d="M152.1,96c-6,0-10.9-4.9-10.9-10.9c0-6,4.9-10.9,10.9-10.9v2.1c-4.9,0-8.8,4-8.8,8.8c0,4.9,4,8.8,8.8,8.8V96
				z"/>
			<path class="st3" d="M149,109.8v-2.1c4.9,0,8.8-4,8.8-8.8c0-4.9-4-8.8-8.8-8.8V88c6,0,10.9,4.9,10.9,10.9
				C159.9,104.9,155,109.8,149,109.8z"/>
			<path class="st3" d="M169.1,96c-6,0-10.9-4.9-10.9-10.9c0-6,4.9-10.9,10.9-10.9v2.1c-4.9,0-8.8,4-8.8,8.8c0,4.9,4,8.8,8.8,8.8V96
				L169.1,96z"/>
			<path class="st3" d="M166,109.8v-2.1c4.9,0,8.8-4,8.8-8.8c0-4.9-4-8.8-8.8-8.8V88c6,0,10.9,4.9,10.9,10.9
				C176.8,104.9,172,109.8,166,109.8z"/>
			<path class="st3" d="M186,96c-6,0-10.9-4.9-10.9-10.9c0-6,4.9-10.9,10.9-10.9v2.1c-4.9,0-8.8,4-8.8,8.8c0,4.9,4,8.8,8.8,8.8V96
				L186,96z"/>
			<path class="st3" d="M182.9,109.8v-2.1c4.9,0,8.8-4,8.8-8.8c0-4.9-4-8.8-8.8-8.8V88c6,0,10.9,4.9,10.9,10.9
				C193.8,104.9,188.9,109.8,182.9,109.8z"/>
			<path class="st3" d="M66,38.4c0,0.9-0.7,1.6-1.5,1.6l0,0c-0.9,0-1.6-0.7-1.6-1.6V19.8c0-0.9,0.7-1.6,1.6-1.6l0,0
				c0.9,0,1.5,0.7,1.5,1.6V38.4z"/>
			<path class="st3" d="M75.8,38.4c0,0.9-0.7,1.6-1.6,1.6l0,0c-0.9,0-1.6-0.7-1.6-1.6V19.8c0-0.9,0.7-1.6,1.6-1.6l0,0
				c0.9,0,1.6,0.7,1.6,1.6V38.4z"/>
			<path class="st3" d="M85.5,38.4c0,0.9-0.7,1.6-1.6,1.6l0,0c-0.9,0-1.5-0.7-1.5-1.6V19.8c0-0.9,0.7-1.6,1.5-1.6l0,0
				c0.9,0,1.6,0.7,1.6,1.6V38.4z"/>
			<path class="st3" d="M95.3,38.4c0,0.9-0.7,1.6-1.5,1.6l0,0c-0.9,0-1.6-0.7-1.6-1.6V19.8c0-0.9,0.7-1.6,1.6-1.6l0,0
				c0.9,0,1.5,0.7,1.5,1.6V38.4z"/>
			<path class="st3" d="M105,38.4c0,0.9-0.7,1.6-1.6,1.6l0,0c-0.9,0-1.5-0.7-1.5-1.6V19.8c0-0.9,0.7-1.6,1.5-1.6l0,0
				c0.9,0,1.6,0.7,1.6,1.6V38.4z"/>
		</g>
	</g>
</g>
</svg>
