<?xml version="1.0" encoding="utf-8"?>
<!-- Generator: Adobe Illustrator 23.0.0, SVG Export Plug-In . SVG Version: 6.00 Build 0)  -->
<svg version="1.1" id="Calque_1" xmlns="http://www.w3.org/2000/svg" xmlns:xlink="http://www.w3.org/1999/xlink" x="0px" y="0px"
	 viewBox="0 0 100 100" style="enable-background:new 0 0 100 100;" xml:space="preserve">
<style type="text/css">
	.st0{fill:#FFFFFF;}
</style>
<g>
	<path d="M83.3,100H16.7C7.5,100,0,92.5,0,83.3V16.7C0,7.5,7.5,0,16.7,0h66.6C92.5,0,100,7.5,100,16.7v66.6
		C100,92.5,92.5,100,83.3,100z"/>
</g>
<path class="st0" d="M65.3,97c2.7,0,2.3,3.3,2.3,3.3H32.1c0,0-0.4-3.3,2.3-3.3c2.5,0,3.1-1.2,3.1-2.3l-0.2-9.8
	c-13.9,3.1-16.8-5.5-16.8-5.5c-2.3-5.9-5.5-7.2-5.5-7.2c-4.7-3.1,0.2-3.1,0.2-3.1c5.1,0.4,7.8,5.1,7.8,5.1
	c4.3,7.6,11.5,5.5,14.5,4.3c0.4-3.3,1.8-5.5,3.1-6.8C29.6,70.5,18.1,66.2,18.1,47c0-5.5,2-10,5.1-13.5c-0.6-1.2-2.1-6.2,0.6-13.1
	c0,0,4.1-1.4,13.7,5.1c8.2-2.3,16.8-2.3,25,0c9.6-6.4,13.7-5.1,13.7-5.1c2.7,6.8,1.2,11.9,0.6,13.1c3.1,3.5,5.1,8,5.1,13.5
	c0,19.1-11.7,23.4-22.9,24.6c2,1.6,3.5,4.7,3.5,9.4l-0.2,13.7C62.2,95.9,62.8,97,65.3,97z"/>
</svg>
