<?xml version="1.0" encoding="utf-8"?>
<!-- Generator: Adobe Illustrator 23.0.0, SVG Export Plug-In . SVG Version: 6.00 Build 0)  -->
<svg version="1.1" id="Calque_1" xmlns="http://www.w3.org/2000/svg" xmlns:xlink="http://www.w3.org/1999/xlink" x="0px" y="0px"
	 viewBox="0 0 70 67" style="enable-background:new 0 0 70 67;" xml:space="preserve">
<style type="text/css">
	.st0{fill:#AEBB3F;}
	.st1{fill:#DDD244;}
	.st2{fill:#7FA339;}
</style>
<path class="st0" d="M31.1,47.4L31,49.7H15.7l10.7-18.5l-12.1-7L3.5,42.7c-2.9,5-3.1,10.2-0.7,14.4c2.4,4.2,7.1,6.6,12.8,6.6H31
	l0.1,2.2l2-2.2l10.8-7l-10.8-7L31.1,47.4z"/>
<path class="st1" d="M47.1,8.9C44.2,4,39.8,1.1,35,1.1S25.8,4,22.9,8.9l-7.7,13.4l-1.9-1.1l3.8,11.8l12.2-2.6l-1.9-1.1L35,16
	l10.6,18.5l12.1-7L47.1,8.9z"/>
<path class="st2" d="M66.5,42.7l-7.8-13.5l1.9-1.1l-12.2-2.6l-3.8,11.8l1.9-1.1l7.7,13.4H33.1l6.3,7l-6.3,7h21.3
	c5.7,0,10.4-2.4,12.8-6.6C69.7,52.9,69.4,47.7,66.5,42.7z"/>
<path d="M67.5,42.2l-7.2-12.5l1-0.6c0.4-0.2,0.6-0.7,0.5-1.1c-0.1-0.5-0.4-0.8-0.9-0.9l-2.5-0.5L48.1,8.4C45,3.1,40.2,0,35,0
	S25,3.1,21.9,8.4l-3.3,5.7c-0.3,0.5-0.1,1.2,0.4,1.5c0.5,0.3,1.2,0.1,1.5-0.4l3.3-5.7c2.7-4.6,6.7-7.3,11.1-7.3s8.5,2.6,11.1,7.3
	l9.4,16.3l-6.8-1.5c-0.6-0.1-1.1,0.2-1.3,0.7l-2.1,6.6L36,15.5c-0.2-0.3-0.6-0.6-1-0.6c-0.4,0-0.8,0.2-1,0.6l-7.7,13.3
	c-0.2,0.4-0.2,0.8,0,1.2l-8.5,1.8l-2.7-8.3c0.1,0,0.2,0,0.3,0c0.3-0.1,0.5-0.3,0.7-0.5l2.2-3.9c0.3-0.5,0.1-1.2-0.4-1.5
	c-0.5-0.3-1.2-0.1-1.5,0.4l-1.7,2.9l-0.9-0.5c-0.4-0.2-0.9-0.2-1.3,0.1c-0.4,0.3-0.5,0.8-0.4,1.2L13,24L2.5,42.2
	c-3.1,5.3-3.3,11-0.7,15.5c2.6,4.5,7.7,7.1,13.8,7.1h14.3L30,66c0,0.4,0.3,0.8,0.7,1c0.1,0,0.2,0.1,0.4,0.1c0.3,0,0.6-0.1,0.8-0.4
	l1.7-1.9h11.8c0.6,0,1.1-0.5,1.1-1.1s-0.5-1.1-1.1-1.1h-9.8l4.7-5.1c0.4-0.4,0.4-1.1,0-1.5l-4.7-5.1h18.7c0.4,0,0.8-0.2,1-0.6
	c0.2-0.3,0.2-0.8,0-1.1l-7.7-13.4c-0.1-0.3-0.4-0.4-0.7-0.5c-0.1,0-0.2,0-0.3,0l2.7-8.3l8.5,1.8c-0.2,0.3-0.2,0.8,0,1.2l7.8,13.5
	c2.7,4.6,2.9,9.4,0.7,13.3c-2.2,3.8-6.5,6-11.9,6h-4.5c-0.6,0-1.1,0.5-1.1,1.1c0,0.6,0.5,1.1,1.1,1.1h4.5c6.1,0,11.2-2.6,13.8-7.1
	C70.8,53.1,70.6,47.5,67.5,42.2z M32,63.2c-0.2-0.4-0.6-0.7-1-0.7H15.6c-5.3,0-9.7-2.2-11.9-6c-2.2-3.8-2-8.7,0.7-13.3l9.5-16.4
	l2.1,6.6c0.2,0.5,0.7,0.9,1.3,0.7l6.8-1.5l-9.4,16.4c-0.2,0.3-0.2,0.8,0,1.1c0.2,0.3,0.6,0.6,1,0.6H31c0.5,0,0.9-0.3,1-0.7l6,6.6
	L32,63.2z M52.4,48.5H33.6l-1.7-1.9c-0.3-0.3-0.8-0.5-1.2-0.3c-0.4,0.1-0.7,0.5-0.7,1l-0.1,1.2H17.6L27,32.1l2.5-0.5
	c0.5-0.1,0.8-0.5,0.9-0.9c0.1-0.5-0.1-0.9-0.5-1.1l-1-0.6L35,18.3l9.4,16.3L43.6,37c-0.1,0.4,0,0.9,0.4,1.2c0.4,0.3,0.9,0.3,1.3,0.1
	l0.9-0.5L52.4,48.5z"/>
</svg>
