<?xml version="1.0" encoding="utf-8"?>
<!-- Generator: Adobe Illustrator 23.0.0, SVG Export Plug-In . SVG Version: 6.00 Build 0)  -->
<svg version="1.1" id="Calque_1" xmlns="http://www.w3.org/2000/svg" xmlns:xlink="http://www.w3.org/1999/xlink" x="0px" y="0px"
	 viewBox="0 0 100 100" style="enable-background:new 0 0 100 100;" xml:space="preserve">
<style type="text/css">
	.st0{fill:#FFFFFF;}
</style>
<g>
	<path d="M83.3,100H16.7C7.5,100,0,92.5,0,83.3V16.7C0,7.5,7.5,0,16.7,0h66.6C92.5,0,100,7.5,100,16.7v66.6
		C100,92.5,92.5,100,83.3,100z"/>
</g>
<g id="XMLID_801_">
	<path id="XMLID_802_" class="st0" d="M32.1,37.4H19c-0.6,0-1.1,0.5-1.1,1.1v42.1c0,0.6,0.5,1.1,1.1,1.1h13.1c0.6,0,1.1-0.5,1.1-1.1
		V38.5C33.1,37.9,32.7,37.4,32.1,37.4z"/>
	<path id="XMLID_803_" class="st0" d="M25.5,16.5c-4.8,0-8.6,3.9-8.6,8.6c0,4.8,3.9,8.6,8.6,8.6c4.8,0,8.6-3.9,8.6-8.6
		C34.2,20.4,30.3,16.5,25.5,16.5z"/>
	<path id="XMLID_804_" class="st0" d="M65.4,36.4c-5.3,0-9.2,2.3-11.5,4.8v-2.7c0-0.6-0.5-1.1-1.1-1.1H40.3c-0.6,0-1.1,0.5-1.1,1.1
		v42.1c0,0.6,0.5,1.1,1.1,1.1h13.1c0.6,0,1.1-0.5,1.1-1.1V59.8c0-7,1.9-9.8,6.8-9.8c5.3,0,5.8,4.4,5.8,10.1v20.5
		c0,0.6,0.5,1.1,1.1,1.1h13.1c0.6,0,1.1-0.5,1.1-1.1V57.5C82.2,47.1,80.2,36.4,65.4,36.4z"/>
</g>
</svg>
