<?xml version="1.0" encoding="iso-8859-1"?>
<!-- Generator: Adobe Illustrator 19.0.0, SVG Export Plug-In . SVG Version: 6.00 Build 0)  -->
<svg version="1.1" id="Layer_1" xmlns="http://www.w3.org/2000/svg" xmlns:xlink="http://www.w3.org/1999/xlink" x="0px" y="0px"
	 viewBox="0 0 474.073 474.073" style="enable-background:new 0 0 474.073 474.073;" xml:space="preserve">
<g>
	<circle style="fill:#A0D2DC;" cx="237.05" cy="236.967" r="236.967"/>
	<path style="fill:#A0D2DC;" d="M458.115,322.437c10.234-26.488,15.903-55.247,15.903-85.346
		c0-130.884-106.098-236.979-236.979-236.979S0.056,106.207,0.056,237.091c0,26.866,4.535,52.658,12.774,76.737
		c59.58-31.412,134.109-46.391,214.996-46.391C315.788,267.433,396.24,285.139,458.115,322.437z"/>
</g>
<path style="fill:#B1C635;" d="M237.039,474.073c100.781,0,186.813-62.944,221.076-151.636
	c-61.87-37.298-142.323-55.001-230.285-55.001c-80.886,0-155.415,14.982-214.996,46.391
	C44.729,407.032,133.028,474.073,237.039,474.073z"/>
<g>
	<path style="fill:#EFEFEF;" d="M249.424,267.845l-1.31-22.185c0-8.138-3.929-14.735-8.771-14.735h-2.339l0.082,36.628
		C241.222,267.609,245.33,267.706,249.424,267.845z"/>
	<path style="fill:#EFEFEF;" d="M237.091,267.553l0.46,206.509c8.09-0.019,16.075-0.471,23.951-1.283L249.42,267.841
		C245.33,267.706,241.222,267.609,237.091,267.553z"/>
</g>
<g>
	<path style="fill:#E4E4E4;" d="M237.091,267.553l-0.082-36.628h-1.321c-4.838,0-8.771,6.601-8.771,14.735l-1.287,21.8
		c0.737-0.004,1.463-0.026,2.196-0.026C230.932,267.433,234.008,267.508,237.091,267.553z"/>
	<path style="fill:#E4E4E4;" d="M237.551,474.062l-0.46-206.509c-3.083-0.045-6.159-0.116-9.265-0.116
		c-0.733,0-1.459,0.022-2.196,0.026l-12.101,205.413c7.734,0.76,15.566,1.197,23.506,1.197
		C237.207,474.073,237.379,474.066,237.551,474.062z"/>
	<path style="fill:#E4E4E4;" d="M249.42,246.03c0,2.63-2.477,4.763-5.538,4.763h-13.018c-3.053,0-5.534-2.133-5.534-4.763v-16.194
		c0-2.638,2.481-4.771,5.534-4.771h13.018c3.061,0,5.538,2.133,5.538,4.771L249.42,246.03L249.42,246.03z"/>
</g>
<circle style="fill:#CDCCCB;" cx="236.863" cy="236.893" r="10.08"/>
<path style="fill:#D7D7D7;" d="M196.975,249.682l15.046,0.816c3.562,0.195,22.585-11.016,22.585-11.016
	c0.198-3.566-2.529-6.615-6.103-6.81L43.188,222.595c-3.57-0.195-6.619,2.544-6.814,6.107
	C36.374,228.702,193.409,249.487,196.975,249.682z"/>
<path style="fill:#E9E9EA;" d="M197.593,247.691l15.042,0.816c3.558,0.198,22.589-11.016,22.589-11.016
	c0.195-3.566-2.533-6.619-6.107-6.81L43.805,220.612c-3.573-0.198-6.627,2.541-6.821,6.107
	C36.98,226.715,194.023,247.497,197.593,247.691z"/>
<path style="fill:#D7D7D7;" d="M245.461,198.666l-7.311,13.175c-1.732,3.113,0.037,25.134,0.037,25.134
	c3.113,1.732,7.057,0.614,8.789-2.514l90.106-162.248c1.732-3.128,0.606-7.068-2.511-8.804
	C334.572,63.408,247.201,195.553,245.461,198.666z"/>
<path style="fill:#E9E9EA;" d="M244.653,196.814l-7.319,13.171c-1.732,3.117,0.041,25.134,0.041,25.134
	c3.117,1.736,7.057,0.614,8.789-2.514l90.106-162.248c1.74-3.128,0.602-7.068-2.514-8.801
	C333.753,61.556,246.389,193.694,244.653,196.814z"/>
<path style="fill:#D7D7D7;" d="M267.852,265.023l-7.974-12.789c-1.882-3.027-21.998-12.161-21.998-12.161
	c-3.027,1.886-3.955,5.867-2.062,8.902l98.155,157.511c1.893,3.038,5.89,3.959,8.917,2.077
	C342.894,408.558,269.738,268.054,267.852,265.023z"/>
<path style="fill:#E9E9EA;" d="M268.672,262.861l-7.966-12.789c-1.886-3.027-21.998-12.161-21.998-12.161
	c-3.027,1.886-3.955,5.867-2.062,8.909l98.162,157.503c1.886,3.038,5.882,3.959,8.909,2.073
	C343.717,406.392,270.557,265.891,268.672,262.861z"/>
<circle style="fill:#E4E4E4;" cx="236.863" cy="236.893" r="6.488"/>
<g>
</g>
<g>
</g>
<g>
</g>
<g>
</g>
<g>
</g>
<g>
</g>
<g>
</g>
<g>
</g>
<g>
</g>
<g>
</g>
<g>
</g>
<g>
</g>
<g>
</g>
<g>
</g>
<g>
</g>
</svg>
