<?xml version="1.0" encoding="iso-8859-1"?>
<!-- Generator: Adobe Illustrator 19.0.0, SVG Export Plug-In . SVG Version: 6.00 Build 0)  -->
<svg version="1.1" id="Layer_1" xmlns="http://www.w3.org/2000/svg" xmlns:xlink="http://www.w3.org/1999/xlink" x="0px" y="0px"
	 viewBox="0 0 512 512" style="enable-background:new 0 0 512 512;" xml:space="preserve">
<circle style="fill:#E4E7ED;" cx="256" cy="256" r="256"/>
<path style="fill:#75BD80;" d="M4.558,294.291c170.302,0,320.547,64,410.986,161.915C371.783,491.031,316.353,512,256,512
	C127.635,512,21.333,417.55,2.917,294.291H4.558z"/>
<path style="fill:#83CF8F;" d="M79.863,441.801c90.803-112.866,248.524-187.989,431.407-203.67
	c0.365,5.835,0.547,11.852,0.547,17.869c0,141.311-114.689,256-256,256c-68.194,0-130.188-26.621-176.137-70.199H79.863z"/>
<ellipse style="fill:#75BD80;" cx="207.134" cy="359.749" rx="37.014" ry="6.929"/>
<polygon style="fill:#FEFEFE;" points="203.67,208.228 210.781,208.228 215.339,358.108 199.111,358.108 "/>
<path style="fill:#C6CBD6;" d="M211.145,220.991l0.365,11.852c-2.006,0.182-5.105,0.365-8.57-0.547l0.365-11.487h7.84V220.991z"/>
<path style="fill:#DCE3DB;" d="M196.741,352.273h20.786c2.37,0,4.376,2.006,4.376,4.376v4.376h-29.538v-4.376
	C192.365,354.279,194.37,352.273,196.741,352.273z"/>
<path style="fill:#FEFEFE;" d="M107.943,212.786c-2.006,0.547-2.553,4.194,1.823,5.652l69.835,5.835l21.516-9.664l-2.006-6.564
	l-12.581-1.823l-78.587,6.382V212.786z"/>
<path style="fill:#ECF0F1;" d="M106.849,216.615c0.547,0.729,1.459,1.641,2.917,2.006l69.835,5.835l21.516-9.664l-22.245,6.564
	l-71.84-4.923L106.849,216.615z"/>
<path style="fill:#FEFEFE;" d="M260.923,292.832c1.459,1.459,4.923,0.182,4.011-4.376l-29.903-63.453l-19.145-13.675l-4.741,4.923
	l4.741,11.67l44.855,64.912H260.923z"/>
<path style="fill:#ECF0F1;" d="M264.752,291.92c0.365-0.729,0.729-2.006,0.365-3.464l-29.903-63.453l-19.145-13.675l16.957,16.046
	l31.727,64.729V291.92z"/>
<path style="fill:#FEFEFE;" d="M253.63,120.342c0.547-2.006-2.37-4.376-5.835-1.276l-40.114,57.618l-2.37,23.339l6.746,1.641
	l7.84-10.028L253.63,120.342z"/>
<g>
	<path style="fill:#ECF0F1;" d="M251.077,117.607c-0.912,0-2.006,0.365-3.282,1.459l-40.114,57.618l-2.37,23.339l5.47-22.61
		L251.077,117.607z"/>
	<circle style="fill:#ECF0F1;" cx="207.316" cy="209.322" r="12.217"/>
</g>
<circle style="fill:#FEFEFE;" cx="207.316" cy="209.322" r="10.94"/>
<path style="fill:#FF5B62;" d="M207.316,202.211c2.006,0,3.647,0.729,4.923,2.006l0,0c1.276,1.276,2.006,3.1,2.006,4.923
	c0,2.006-0.729,3.647-2.006,4.923l0,0c-1.276,1.276-3.1,2.006-4.923,2.006c-2.006,0-3.647-0.729-4.923-2.006l0,0
	c-1.276-1.276-2.006-3.1-2.006-4.923c0-2.006,0.729-3.647,2.006-4.923l0,0C203.67,202.94,205.493,202.211,207.316,202.211z
	 M210.598,206.04c-0.912-0.912-2.006-1.459-3.282-1.459s-2.553,0.547-3.282,1.459l0,0c-0.912,0.912-1.459,2.006-1.459,3.282
	c0,1.276,0.547,2.553,1.459,3.282l0,0c0.912,0.912,2.006,1.459,3.282,1.459s2.553-0.547,3.282-1.459l0,0
	c0.912-0.912,1.459-2.006,1.459-3.282C212.057,208.046,211.51,206.769,210.598,206.04L210.598,206.04z"/>
<ellipse style="fill:#75BD80;" cx="333.311" cy="421.561" rx="51.601" ry="9.846"/>
<polygon style="fill:#FEFEFE;" points="328.57,210.781 338.416,210.781 344.615,419.373 322.37,419.373 "/>
<path style="fill:#C6CBD6;" d="M338.963,228.467l0.547,16.593c-2.735,0.365-7.111,0.365-12.034-0.729l0.547-15.863H338.963z"/>
<path style="fill:#DCE3DB;" d="M318.906,411.35h28.991c3.282,0,6.017,2.735,6.017,6.017v6.017h-41.208v-6.017
	c0-3.282,2.735-6.017,6.017-6.017H318.906z"/>
<path style="fill:#FEFEFE;" d="M215.704,279.704c-2.006,2.006-0.547,6.929,5.835,6.017l90.074-37.744l20.239-25.709l-6.746-6.929
	l-16.593,6.017l-92.809,58.53V279.704z"/>
<path style="fill:#ECF0F1;" d="M216.615,284.991c1.094,0.729,2.735,1.094,4.923,0.729l90.074-37.744l20.239-25.709l-23.157,22.61
	l-91.897,40.296L216.615,284.991z"/>
<path style="fill:#FEFEFE;" d="M456.023,279.886c2.735,0.912,6.199-2.917,2.188-8.023l-77.675-59.077l-32.456-4.741l-2.735,9.299
	l13.493,11.487l97.185,51.236V279.886z"/>
<path style="fill:#ECF0F1;" d="M460.034,276.422c0-1.276-0.365-2.917-1.823-4.558l-77.675-59.077l-32.456-4.741l31.179,8.752
	l80.775,59.442V276.422z"/>
<path style="fill:#FEFEFE;" d="M336.046,71.658c-0.547-2.735-5.652-3.829-8.023,2.188l-12.399,96.821l12.217,30.45l9.299-2.188
	l3.1-17.322L335.863,71.84L336.046,71.658z"/>
<g>
	<path style="fill:#ECF0F1;" d="M330.94,69.835c-1.094,0.547-2.188,1.823-3.1,3.829l-12.399,96.821l12.217,30.45l-7.84-31.362
		L330.94,69.835z"/>
	<circle style="fill:#ECF0F1;" cx="333.493" cy="212.239" r="17.14"/>
</g>
<circle style="fill:#FEFEFE;" cx="333.493" cy="212.239" r="15.134"/>
<path style="fill:#FF5B62;" d="M333.493,202.393c2.735,0,5.105,1.094,6.929,2.917l0,0c1.823,1.823,2.917,4.194,2.917,6.929
	s-1.094,5.105-2.917,6.929l0,0c-1.823,1.823-4.194,2.917-6.929,2.917c-2.735,0-5.105-1.094-6.929-2.917l0,0
	c-1.823-1.823-2.917-4.194-2.917-6.929s1.094-5.105,2.917-6.929l0,0C328.387,203.487,330.758,202.393,333.493,202.393z
	 M338.051,207.681c-1.094-1.094-2.735-1.823-4.558-1.823c-1.823,0-3.464,0.729-4.558,1.823l0,0
	c-1.094,1.094-2.006,2.735-2.006,4.558s0.729,3.464,1.823,4.558l0,0c1.094,1.094,2.735,2.006,4.558,2.006s3.464-0.729,4.558-1.823
	l0,0c1.094-1.094,2.006-2.735,2.006-4.558c0-1.823-0.729-3.464-2.006-4.558l0,0L338.051,207.681z"/>
<polygon style="fill:#FEFEFE;" points="66.006,223.179 69.835,223.179 72.205,303.954 63.635,303.954 "/>
<path style="fill:#C6CBD6;" d="M70.017,229.926l0.182,6.382c-1.094,0.182-2.735,0.182-4.558-0.182l0.182-6.199H70.017z"/>
<path style="fill:#DCE3DB;" d="M62.359,300.855h11.305c1.276,0,2.37,1.094,2.37,2.37v2.37H60.171v-2.37
	c0-1.276,1.094-2.37,2.37-2.37H62.359z"/>
<path style="fill:#FEFEFE;" d="M14.222,223.727c-1.094,0.182-1.459,2.188,0.729,3.1l37.561,4.741l11.852-4.741l-0.912-3.647
	l-6.746-1.276l-42.484,1.641V223.727z"/>
<path style="fill:#ECF0F1;" d="M13.493,225.55c0.182,0.365,0.729,0.912,1.459,1.094l37.561,4.741l11.852-4.741l-12.217,3.1
	l-38.655-4.376V225.55z"/>
<path style="fill:#FEFEFE;" d="M94.815,270.405c0.729,0.729,2.735,0.182,2.37-2.188L82.598,233.39l-10.028-7.84l-2.735,2.553
	l2.37,6.382L94.815,270.405z"/>
<path style="fill:#ECF0F1;" d="M96.821,269.858c0.182-0.365,0.365-1.094,0.365-1.823l-14.587-34.826l-10.028-7.84l8.752,8.934
	L96.821,269.858z"/>
<path style="fill:#FEFEFE;" d="M94.997,177.231c0.365-1.094-1.094-2.37-3.1-0.912l-22.974,30.085L67.1,218.986l3.647,1.094
	l4.376-5.288L94.997,177.231z"/>
<g>
	<path style="fill:#ECF0F1;" d="M93.538,175.59c-0.547,0-1.094,0.182-1.823,0.729l-22.974,30.085l-1.823,12.581l3.464-12.034
		L93.538,175.59z"/>
	<circle style="fill:#ECF0F1;" cx="68.011" cy="223.727" r="6.564"/>
</g>
<circle style="fill:#FEFEFE;" cx="68.011" cy="223.727" r="5.835"/>
<path style="fill:#FF5B62;" d="M68.011,219.897c1.094,0,2.006,0.365,2.735,1.094l0,0c0.729,0.729,1.094,1.641,1.094,2.735
	c0,1.094-0.365,2.006-1.094,2.735l0,0c-0.729,0.729-1.641,1.094-2.735,1.094s-2.006-0.365-2.735-1.094l0,0
	c-0.729-0.729-1.094-1.641-1.094-2.735c0-1.094,0.365-2.006,1.094-2.735l0,0C66.006,220.262,66.917,219.897,68.011,219.897z
	 M69.835,221.903c-0.547-0.547-1.094-0.729-1.823-0.729c-0.729,0-1.276,0.365-1.823,0.729l0,0c-0.547,0.547-0.729,1.094-0.729,1.823
	c0,0.729,0.365,1.276,0.729,1.823l0,0c0.547,0.547,1.094,0.729,1.823,0.729c0.729,0,1.276-0.365,1.823-0.729l0,0
	c0.547-0.365,0.729-1.094,0.729-1.823C70.564,222.997,70.199,222.45,69.835,221.903L69.835,221.903z"/>
<path style="fill:#F7F9F7;" d="M107.578,122.53c1.641,0,3.282,0.365,4.741,1.094c0.365-10.393,8.752-18.781,19.328-18.781
	s19.328,8.57,19.328,19.328c0,0.912,0,1.641-0.182,2.553c0.365,0,0.912-0.182,1.276-0.182c4.558,0,8.387,3.829,8.387,8.387
	c0,4.558-3.829,8.387-8.387,8.387h-20.422h-23.886c-5.835,0-10.393-4.741-10.393-10.393c0-5.835,4.741-10.393,10.393-10.393H107.578
	z"/>
<path style="fill:#FEFEFE;" d="M107.578,122.53c1.641,0,3.282,0.365,4.741,1.094c0.365-10.393,8.752-18.781,19.328-18.781
	c7.84,0,14.587,4.741,17.504,11.305c0,3.647-1.094,7.111-2.735,10.028c2.553,0.547,4.376,2.917,4.376,5.652
	c0,3.1-2.553,5.835-5.835,5.835c-2.735,0-5.105-2.006-5.652-4.558c-2.735,1.641-6.017,2.553-9.664,2.553
	c-4.376,0-8.57-1.459-11.67-4.011c-1.823,3.1-5.288,5.288-9.299,5.288c-5.288,0-9.481-3.647-10.576-8.57
	c1.641-3.464,5.288-5.652,9.299-5.652L107.578,122.53z"/>
<path style="fill:#F7F9F7;" d="M386.37,120.707c2.006,0,3.829,0.547,5.652,1.276c0.365-12.399,10.576-22.427,22.974-22.427
	c12.764,0,22.974,10.393,22.974,22.974c0,1.094,0,2.006-0.182,3.1c0.547,0,1.094-0.182,1.459-0.182
	c5.47,0,10.028,4.558,10.028,10.028c0,5.47-4.558,10.028-10.028,10.028h-24.433h-28.627c-6.929,0-12.581-5.652-12.581-12.581
	c0-6.929,5.652-12.581,12.581-12.581L386.37,120.707z"/>
<path style="fill:#FEFEFE;" d="M386.37,120.707c2.006,0,3.829,0.547,5.652,1.276c0.365-12.399,10.576-22.427,22.974-22.427
	c9.299,0,17.504,5.652,20.969,13.675c0,4.376-1.276,8.57-3.282,12.034c3.1,0.729,5.288,3.464,5.288,6.746
	c0,3.829-3.1,6.929-6.929,6.929c-3.282,0-6.199-2.37-6.746-5.47c-3.464,2.006-7.293,3.1-11.487,3.1
	c-5.288,0-10.211-1.823-14.04-4.741c-2.188,3.829-6.382,6.382-11.122,6.382c-6.199,0-11.487-4.376-12.581-10.393
	c2.006-4.011,6.199-6.929,11.122-6.929L386.37,120.707z"/>
<g>
</g>
<g>
</g>
<g>
</g>
<g>
</g>
<g>
</g>
<g>
</g>
<g>
</g>
<g>
</g>
<g>
</g>
<g>
</g>
<g>
</g>
<g>
</g>
<g>
</g>
<g>
</g>
<g>
</g>
</svg>
